<svg xmlns="http://www.w3.org/2000/svg" viewBox="0.61197 0 14.77607 15.99999">
    <g fill="none" stroke="currentColor" stroke-miterlimit="10">
        <path d="M11.04765,3.5854 c0.85194,0,1.5426-0.69074,1.5426-1.54272S11.89955,0.5,11.04765,0.5c-0.85214,0-1.54292,0.69074-1.54292,1.54268 C9.50469,2.89466,10.19547,3.5854,11.04765,3.5854z"/>
        <path d="M13.3233,4.37043 c-0.93107,1.30418-2.17784,1.45521-3.51945,0.65874c-0.09133-0.05414-0.49652-0.27739-0.58624-0.3307 C7.05934,3.41721,4.9036,3.91967,3.45789,5.94424c-0.61434,0.86109,0.80654,1.67729,1.414,0.82623 c0.74696-1.04603,1.69677-1.34871,2.73555-1.01739c-0.53189,0.92324-0.9969,1.84088-1.65308,3.1446 c-0.65634,1.30373-2.10545,2.34486-3.49785,1.53057c-1.0047-0.58723-1.91073,0.85612-0.90906,1.44153 c1.90095,1.11099,4.12986,0.42878,5.26771-1.0154c0.03947,0.0211,0.08117,0.04013,0.12694,0.05613 c0.92954,0.32386,2.14803,1.18607,2.51931,1.49165c0.37116,0.30558,1.00889,1.86227,1.38759,2.64443 c0.45942,0.94906,1.94311,0.25782,1.48199-0.69527c-0.42928-0.88742-1.14984-2.65857-1.71186-3.10667 c-0.45084-0.35939-1.32611-1.02825-2.06847-1.4077C9.0529,8.86413,9.57584,7.9018,10.12634,6.95609 c1.75477,0.53765,3.42269-0.09568,4.61059-1.75966C15.35177,4.33548,13.93122,3.51928,13.3233,4.37043z"/>
    </g>
</svg>
